{
	"asset":{
		"generator":"Khronos glTF Blender I/O v4.4.56",
		"version":"2.0"
	},
	"extensionsUsed":[
		"KHR_materials_specular"
	],
	"scene":0,
	"scenes":[
		{
			"name":"Scene",
			"nodes":[
				0
			]
		}
	],
	"nodes":[
		{
			"mesh":0,
			"name":"Block",
			"scale":[
				0.5,
				0.5,
				0.5
			]
		}
	],
	"materials":[
		{
			"extensions":{
				"KHR_materials_specular":{
					"specularFactor":0.05000000074505806
				}
			},
			"name":"ScytheDev_A",
			"normalTexture":{
				"index":0
			},
			"pbrMetallicRoughness":{
				"baseColorTexture":{
					"index":1
				},
				"metallicRoughnessTexture":{
					"index":2
				}
			}
		},
		{
			"extensions":{
				"KHR_materials_specular":{
					"specularFactor":0
				}
			},
			"name":"MI_ConcreteWall101",
			"pbrMetallicRoughness":{
				"baseColorTexture":{
					"index":3
				},
				"metallicFactor":0
			}
		},
		{
			"extensions":{
				"KHR_materials_specular":{
					"specularFactor":0
				}
			},
			"name":"MI_TilesFloor1",
			"pbrMetallicRoughness":{
				"baseColorTexture":{
					"index":4
				},
				"metallicFactor":0
			}
		},
		{
			"extensions":{
				"KHR_materials_specular":{
					"specularFactor":0
				}
			},
			"name":"MI_Concrete2",
			"pbrMetallicRoughness":{
				"baseColorTexture":{
					"index":5
				},
				"metallicFactor":0
			}
		}
	],
	"meshes":[
		{
			"name":"Block_D3F3F975",
			"primitives":[
				{
					"attributes":{
						"POSITION":0,
						"NORMAL":1,
						"TEXCOORD_0":2,
						"TEXCOORD_1":3
					},
					"indices":4,
					"material":0
				},
				{
					"attributes":{
						"POSITION":5,
						"NORMAL":6,
						"TEXCOORD_0":7,
						"TEXCOORD_1":8
					},
					"indices":9,
					"material":1
				},
				{
					"attributes":{
						"POSITION":10,
						"NORMAL":11,
						"TEXCOORD_0":12,
						"TEXCOORD_1":13
					},
					"indices":14,
					"material":2
				},
				{
					"attributes":{
						"POSITION":15,
						"NORMAL":16,
						"TEXCOORD_0":17,
						"TEXCOORD_1":18
					},
					"indices":19,
					"material":3
				}
			]
		}
	],
	"textures":[
		{
			"sampler":0,
			"source":0
		},
		{
			"sampler":0,
			"source":1
		},
		{
			"sampler":0,
			"source":2
		},
		{
			"sampler":1,
			"source":3
		},
		{
			"sampler":1,
			"source":4
		},
		{
			"sampler":1,
			"source":5
		}
	],
	"images":[
		{
			"mimeType":"image/png",
			"name":"ScytheDev_A_Normal",
			"uri":"ScytheDev_A_Normal.png"
		},
		{
			"mimeType":"image/png",
			"name":"ScytheDev_A_BaseColor",
			"uri":"ScytheDev_A_BaseColor.png"
		},
		{
			"mimeType":"image/png",
			"name":"ScytheDev_A_MetallicRoughness",
			"uri":"ScytheDev_A_MetallicRoughness.png"
		},
		{
			"mimeType":"image/png",
			"name":"concrete_wall_10_1",
			"uri":"concrete_wall_10_1.png"
		},
		{
			"mimeType":"image/png",
			"name":"tiles_floor_1",
			"uri":"tiles_floor_1.png"
		},
		{
			"mimeType":"image/png",
			"name":"concrete_2",
			"uri":"concrete_2.png"
		}
	],
	"accessors":[
		{
			"bufferView":0,
			"componentType":5126,
			"count":10,
			"max":[
				10,
				3.5,
				2
			],
			"min":[
				-3,
				0,
				-3
			],
			"type":"VEC3"
		},
		{
			"bufferView":1,
			"componentType":5126,
			"count":10,
			"type":"VEC3"
		},
		{
			"bufferView":2,
			"componentType":5126,
			"count":10,
			"type":"VEC2"
		},
		{
			"bufferView":3,
			"componentType":5126,
			"count":10,
			"type":"VEC2"
		},
		{
			"bufferView":4,
			"componentType":5123,
			"count":18,
			"type":"SCALAR"
		},
		{
			"bufferView":5,
			"componentType":5126,
			"count":18,
			"max":[
				2,
				3.5,
				2
			],
			"min":[
				-3,
				0,
				-3
			],
			"type":"VEC3"
		},
		{
			"bufferView":6,
			"componentType":5126,
			"count":18,
			"type":"VEC3"
		},
		{
			"bufferView":7,
			"componentType":5126,
			"count":18,
			"type":"VEC2"
		},
		{
			"bufferView":8,
			"componentType":5126,
			"count":18,
			"type":"VEC2"
		},
		{
			"bufferView":9,
			"componentType":5123,
			"count":36,
			"type":"SCALAR"
		},
		{
			"bufferView":10,
			"componentType":5126,
			"count":8,
			"max":[
				10,
				0,
				2
			],
			"min":[
				-3,
				0,
				-3
			],
			"type":"VEC3"
		},
		{
			"bufferView":11,
			"componentType":5126,
			"count":8,
			"type":"VEC3"
		},
		{
			"bufferView":12,
			"componentType":5126,
			"count":8,
			"type":"VEC2"
		},
		{
			"bufferView":13,
			"componentType":5126,
			"count":8,
			"type":"VEC2"
		},
		{
			"bufferView":14,
			"componentType":5123,
			"count":18,
			"type":"SCALAR"
		},
		{
			"bufferView":15,
			"componentType":5126,
			"count":4,
			"max":[
				10,
				2,
				0.5
			],
			"min":[
				2,
				2,
				-1.5
			],
			"type":"VEC3"
		},
		{
			"bufferView":16,
			"componentType":5126,
			"count":4,
			"type":"VEC3"
		},
		{
			"bufferView":17,
			"componentType":5126,
			"count":4,
			"type":"VEC2"
		},
		{
			"bufferView":18,
			"componentType":5126,
			"count":4,
			"type":"VEC2"
		},
		{
			"bufferView":19,
			"componentType":5123,
			"count":6,
			"type":"SCALAR"
		}
	],
	"bufferViews":[
		{
			"buffer":0,
			"byteLength":120,
			"byteOffset":0,
			"target":34962
		},
		{
			"buffer":0,
			"byteLength":120,
			"byteOffset":120,
			"target":34962
		},
		{
			"buffer":0,
			"byteLength":80,
			"byteOffset":240,
			"target":34962
		},
		{
			"buffer":0,
			"byteLength":80,
			"byteOffset":320,
			"target":34962
		},
		{
			"buffer":0,
			"byteLength":36,
			"byteOffset":400,
			"target":34963
		},
		{
			"buffer":0,
			"byteLength":216,
			"byteOffset":436,
			"target":34962
		},
		{
			"buffer":0,
			"byteLength":216,
			"byteOffset":652,
			"target":34962
		},
		{
			"buffer":0,
			"byteLength":144,
			"byteOffset":868,
			"target":34962
		},
		{
			"buffer":0,
			"byteLength":144,
			"byteOffset":1012,
			"target":34962
		},
		{
			"buffer":0,
			"byteLength":72,
			"byteOffset":1156,
			"target":34963
		},
		{
			"buffer":0,
			"byteLength":96,
			"byteOffset":1228,
			"target":34962
		},
		{
			"buffer":0,
			"byteLength":96,
			"byteOffset":1324,
			"target":34962
		},
		{
			"buffer":0,
			"byteLength":64,
			"byteOffset":1420,
			"target":34962
		},
		{
			"buffer":0,
			"byteLength":64,
			"byteOffset":1484,
			"target":34962
		},
		{
			"buffer":0,
			"byteLength":36,
			"byteOffset":1548,
			"target":34963
		},
		{
			"buffer":0,
			"byteLength":48,
			"byteOffset":1584,
			"target":34962
		},
		{
			"buffer":0,
			"byteLength":48,
			"byteOffset":1632,
			"target":34962
		},
		{
			"buffer":0,
			"byteLength":32,
			"byteOffset":1680,
			"target":34962
		},
		{
			"buffer":0,
			"byteLength":32,
			"byteOffset":1712,
			"target":34962
		},
		{
			"buffer":0,
			"byteLength":12,
			"byteOffset":1744,
			"target":34963
		}
	],
	"samplers":[
		{
			"magFilter":9729,
			"minFilter":9987
		},
		{
			"magFilter":9728,
			"minFilter":9984
		}
	],
	"buffers":[
		{
			"byteLength":1756,
			"uri":"ue5level.bin"
		}
	]
}
