{
	"asset":{
		"generator":"Khronos glTF Blender I/O v4.4.56",
		"version":"2.0"
	},
	"scene":0,
	"scenes":[
		{
			"name":"Scene",
			"nodes":[
				0
			]
		}
	],
	"nodes":[
		{
			"mesh":0,
			"name":"Text"
		}
	],
	"meshes":[
		{
			"name":"Text",
			"primitives":[
				{
					"attributes":{
						"POSITION":0,
						"NORMAL":1,
						"TEXCOORD_0":2,
						"COLOR_0":3
					},
					"indices":4
				}
			]
		}
	],
	"accessors":[
		{
			"bufferView":0,
			"componentType":5126,
			"count":1578,
			"max":[
				6.270000457763672,
				0.22999998927116394,
				0.018000001087784767
			],
			"min":[
				0.15000000596046448,
				-0.22999998927116394,
				-1.3820000886917114
			],
			"type":"VEC3"
		},
		{
			"bufferView":1,
			"componentType":5126,
			"count":1578,
			"type":"VEC3"
		},
		{
			"bufferView":2,
			"componentType":5126,
			"count":1578,
			"type":"VEC2"
		},
		{
			"bufferView":3,
			"componentType":5123,
			"count":1578,
			"normalized":true,
			"type":"VEC4"
		},
		{
			"bufferView":4,
			"componentType":5123,
			"count":4668,
			"type":"SCALAR"
		}
	],
	"bufferViews":[
		{
			"buffer":0,
			"byteLength":18936,
			"byteOffset":0,
			"target":34962
		},
		{
			"buffer":0,
			"byteLength":18936,
			"byteOffset":18936,
			"target":34962
		},
		{
			"buffer":0,
			"byteLength":12624,
			"byteOffset":37872,
			"target":34962
		},
		{
			"buffer":0,
			"byteLength":12624,
			"byteOffset":50496,
			"target":34962
		},
		{
			"buffer":0,
			"byteLength":9336,
			"byteOffset":63120,
			"target":34963
		}
	],
	"buffers":[
		{
			"byteLength":72456,
			"uri":"error.bin"
		}
	]
}
